<?xml version="1.0" encoding="UTF-8"?>
<svg xmlns="http://www.w3.org/2000/svg" viewBox="0 0 512 512">
  <defs>
    <linearGradient id="pin" x1="0" y1="0" x2="0" y2="1">
      <stop offset="0%" stop-color="#FF5A5F"/>
      <stop offset="100%" stop-color="#EA4335"/>
    </linearGradient>
    <linearGradient id="pCenter" x1="0" y1="0" x2="0" y2="1">
      <stop offset="0%" stop-color="#1A73E8"/>
      <stop offset="100%" stop-color="#0B47B3"/>
    </linearGradient>
    <linearGradient id="pSide" x1="0" y1="0" x2="0" y2="1">
      <stop offset="0%" stop-color="#4285F4"/>
      <stop offset="100%" stop-color="#1A73E8"/>
    </linearGradient>
    <filter id="sh" x="-20%" y="-20%" width="140%" height="140%">
      <feGaussianBlur in="SourceAlpha" stdDeviation="6"/>
      <feOffset dx="0" dy="4"/>
      <feComponentTransfer><feFuncA type="linear" slope="0.35"/></feComponentTransfer>
      <feMerge><feMergeNode/><feMergeNode in="SourceGraphic"/></feMerge>
    </filter>
  </defs>

  <g filter="url(#sh)">
    <path d="M256 72 C 170 72 108 138 108 220 C 108 286 170 352 232 424 C 244 438 268 438 280 424 C 342 352 404 286 404 220 C 404 138 342 72 256 72 Z" fill="url(#pin)"/>
    <circle cx="256" cy="220" r="108" fill="#FFFFFF"/>
  </g>

  <g transform="translate(256 220) scale(1.35)">
    <circle cx="-38" cy="-12" r="14" fill="url(#pSide)"/>
    <path d="M-62 18 q24 -24 48 0 v30 h-48 z" fill="url(#pSide)"/>
    <circle cx="38" cy="-12" r="14" fill="url(#pSide)"/>
    <path d="M14 18 q24 -24 48 0 v30 h-48 z" fill="url(#pSide)"/>
    <circle cx="0" cy="-22" r="18" fill="url(#pCenter)"/>
    <path d="M-32 14 q32 -30 64 0 v36 h-64 z" fill="url(#pCenter)"/>
  </g>
</svg>
